<?xml version="1.0" encoding="UTF-8"?>
<svg xmlns="http://www.w3.org/2000/svg" xmlns:xlink="http://www.w3.org/1999/xlink" width="30pt" height="30.000001pt" viewBox="0 0 30 30.000001" version="1.2">
<defs>
<clipPath id="clip1">
  <path d="M 1.601562 1.089844 L 28.425781 1.089844 L 28.425781 27.945312 L 1.601562 27.945312 Z M 1.601562 1.089844 "/>
</clipPath>
</defs>
<g id="surface1">
<g clip-path="url(#clip1)" clip-rule="nonzero">
<path style=" stroke:none;fill-rule:nonzero;fill:rgb(6.269836%,5.879211%,5.099487%);fill-opacity:1;" d="M 15.199219 2.351562 L 15.199219 27.074219 C 8.375 27.015625 2.890625 21.433594 2.945312 14.605469 C 3.007812 7.863281 8.457031 2.414062 15.199219 2.351562 Z M 14.832031 1.09375 C 7.457031 1.292969 1.589844 7.335938 1.601562 14.714844 C 1.601562 22.222656 7.691406 28.3125 15.199219 28.3125 C 22.710938 28.3125 28.796875 22.222656 28.796875 14.714844 C 28.8125 7.207031 22.738281 1.105469 15.230469 1.089844 C 15.097656 1.089844 14.964844 1.089844 14.832031 1.09375 "/>
</g>
</g>
</svg>
